<?xml version="1.0" encoding="utf-8"?>
<svg width="55px" height="32px" viewBox="0 0 55 32" version="1.1" xmlns:xlink="http://www.w3.org/1999/xlink" xmlns="http://www.w3.org/2000/svg">
  <g id="Group">
    <g id="_ui_recourcesiconsangle-double" fill-opacity="1">
      <path d="M32 0L32 0L32 32L0 32L0 0L32 0Z" id="_ui_recourcesiconsangle-double" fill="none" stroke="none" />
      <path d="M6.7334 26.7577L16.6841 16.5843C17.0027 16.2612 17.0027 15.7388 16.6841 15.4157L6.7334 5.24231C6.41482 4.91923 5.89965 4.91923 5.58107 5.24231L4.23894 6.60334C3.92035 6.92642 3.92035 7.44884 4.23894 7.77191L12.2714 16L4.23894 24.2281C3.92035 24.5512 3.92035 25.0736 4.23894 25.3967L5.58107 26.7577C5.89965 27.0808 6.41482 27.0808 6.7334 26.7577ZM17.8103 26.7577L27.761 16.5843C28.0796 16.2612 28.0796 15.7388 27.761 15.4157L17.8103 5.24231C17.4917 4.91923 16.9766 4.91923 16.658 5.24231L15.3158 6.60334C14.9973 6.92642 14.9973 7.44884 15.3158 7.77191L23.3483 16L15.3158 24.2281C14.9973 24.5512 14.9973 25.0736 15.3158 25.3967L16.658 26.7577C16.9766 27.0808 17.4917 27.0808 17.8103 26.7577Z" id="Combined-Shape" fill="#222222" fill-rule="evenodd" stroke="none" />
    </g>
    <g id="_ui_recourcesiconsangle-double" fill-opacity="1" transform="translate(23 0)">
      <path d="M32 0L32 0L32 32L0 32L0 0L32 0Z" id="_ui_recourcesiconsangle-double" fill="none" stroke="none" />
      <path d="M6.7334 26.7577L16.6841 16.5843C17.0027 16.2612 17.0027 15.7388 16.6841 15.4157L6.7334 5.24231C6.41482 4.91923 5.89965 4.91923 5.58107 5.24231L4.23894 6.60334C3.92035 6.92642 3.92035 7.44884 4.23894 7.77191L12.2714 16L4.23894 24.2281C3.92035 24.5512 3.92035 25.0736 4.23894 25.3967L5.58107 26.7577C5.89965 27.0808 6.41482 27.0808 6.7334 26.7577ZM17.8103 26.7577L27.761 16.5843C28.0796 16.2612 28.0796 15.7388 27.761 15.4157L17.8103 5.24231C17.4917 4.91923 16.9766 4.91923 16.658 5.24231L15.3158 6.60334C14.9973 6.92642 14.9973 7.44884 15.3158 7.77191L23.3483 16L15.3158 24.2281C14.9973 24.5512 14.9973 25.0736 15.3158 25.3967L16.658 26.7577C16.9766 27.0808 17.4917 27.0808 17.8103 26.7577Z" id="Combined-Shape" fill="#222222" fill-rule="evenodd" stroke="none" />
    </g>
  </g>
</svg>